# xmcd
#
# Track frame offsets: 
#        150
#        25646
#        39057
#        49403
#        65515
#        87403
#        100519
#        118964
#        150363
#        174908
#
# Disc length: 2569 seconds
#
# Revision: 0
# Processed by: cddbd v1.5.2PL0 Copyright (c) Steve Scherf et al.
# Submitted via: ExactAudioCopy v0.95b4
#
DISCID=6f0a070a
DTITLE=Dolly Varden - The Panic Bell
DYEAR=2007
DGENRE=Country
TTITLE0=Complete Resistance
TTITLE1=Everything
TTITLE2=Small Pockets
TTITLE3=All Gonna Change
TTITLE4=The Truth is Told
TTITLE5=You Never Will
TTITLE6=Sad Panda Clown's Lament
TTITLE7=Triumph Mine, Idaho
TTITLE8=Your Last Mistake
TTITLE9=Good Provider
EXTD=
EXTT0=
EXTT1=
EXTT2=
EXTT3=
EXTT4=
EXTT5=
EXTT6=
EXTT7=
EXTT8=
EXTT9=
PLAYORDER=
